<svg xmlns="http://www.w3.org/2000/svg" width="61" height="60" viewBox="0 0 61 60">
    <g fill="#FF5722" fill-rule="evenodd" style="mix-blend-mode:multiply">
        <ellipse cx="30.158" cy="29.824" opacity=".2" rx="30.158" ry="29.824"/>
        <path d="M39.009 33.103l3.746-.196.126 2.399-3.746.196-.126-2.399zm-22.181 2.203l.126-2.4 3.746.198-.126 2.399-3.746-.197zm21.554 4.42c1.008 0 2.185.494 2.185 1.885v1.275h-2.403v-.758h-16.62v.758H19.14v-1.275c0-1.391 1.177-1.885 2.184-1.885h17.057zm9.307-6.45v.027c.002.176.019 9.197.02 9.581l-2.403.005c-.006-3.184-.017-9.198-.019-9.553-.062-1.807-.932-3.098-2.251-4.86l-.068-.1a14.852 14.852 0 0 1-.29-.508 135.124 135.124 0 0 1-25.646 0c-.098.177-.195.347-.292.508l-.067.1c-1.32 1.763-2.19 3.054-2.25 4.863-.003.296-.015 6.36-.02 9.55L12 42.884c.002-.963.018-9.414.021-9.591v-.017c.075-2.414 1.2-4.167 2.32-5.69-.688-.08-1.376-.165-2.064-.255l.313-2.382c1.01.133 2.023.253 3.036.362 1.247-2.708 2.363-6.16 2.376-6.203l.012-.035c.382-1.074 1.865-1.448 4.298-1.731 2.006-.233 4.688-.355 7.548-.34 2.674-.014 5.375.105 7.404.328 2.645.29 4.166.675 4.442 1.816.05.13.104.287.173.485.35 1.008 1.24 3.572 2.207 5.68 1.012-.11 2.022-.23 3.032-.362l.313 2.382c-.688.09-1.376.175-2.064.254 1.12 1.525 2.245 3.276 2.322 5.69zm-29.544-7.717c7.79.69 15.63.69 23.421 0-.866-2-1.604-4.125-1.956-5.14l-.063-.178-.133-.095-.002-.018c-1.038-.313-4.32-.752-9.55-.725-6.262-.032-8.973.531-9.685.783-.288.865-1.085 3.195-2.032 5.373z"/>
    </g>
</svg>
