<svg xmlns="http://www.w3.org/2000/svg" width="60" height="60" viewBox="0 0 60 60">
    <g fill="#FF5722" fill-rule="evenodd" style="mix-blend-mode:multiply">
        <circle cx="30" cy="30" r="30" opacity=".2"/>
        <path d="M44.14 17.463v12.503c0 4.455-2.445 8.948-7.07 12.996-3.396 2.973-6.755 4.666-6.896 4.737l-.603.301-.604-.301c-.266-.134-6.578-3.33-10.626-8.693l-.522-.691h3.428c2.929 3.436 6.84 5.814 8.324 6.644 1.078-.603 3.439-2.02 5.765-4.065 2.786-2.447 6.106-6.33 6.106-10.928V19.334l-11.87-4.453-11.874 4.453v6.485H15v-8.356L29.571 12l14.569 5.463zm-20.533 6.52h9.72v2.699h-9.72v-2.698zm-8.152 6.559h17.872v2.698H15.455v-2.698z"/>
    </g>
</svg>
