<svg xmlns="http://www.w3.org/2000/svg" width="61" height="60" viewBox="0 0 61 60">
    <g fill="none" fill-rule="evenodd" style="mix-blend-mode:multiply">
        <ellipse cx="30.158" cy="29.824" fill="#FF5722" opacity=".2" rx="30.158" ry="29.824"/>
        <path fill="#F15A22" d="M10 42.923h12.923v2.462H10v-2.462zm6.154-6.154h7.077v2.462h-7.077v-2.462zm19.93-3.077l-7.007-3.139v-9.476h2.455v7.857l5.545 2.484-.992 2.274zM30.31 45.385l-.002-2.469c7.293 0 13.225-5.933 13.225-13.225 0-3.532-1.376-6.853-3.874-9.35a13.138 13.138 0 0 0-9.35-3.873h-.001c-7.292 0-13.224 5.933-13.223 13.225v1.234h-2.469v-1.234c0-8.653 7.04-15.692 15.692-15.693a15.59 15.59 0 0 1 11.096 4.596A15.59 15.59 0 0 1 46 29.69c0 8.653-7.039 15.693-15.691 15.694z"/>
    </g>
</svg>
